<svg width="88" height="88" viewBox="0 0 88 88" fill="none" xmlns="http://www.w3.org/2000/svg">
<path d="M52.696 2H18.4C16.1598 2 15.0397 2 14.184 2.43597C13.4314 2.81947 12.8195 3.43139 12.436 4.18404C12 5.03969 12 6.15979 12 8.4V79.6C12 81.8402 12 82.9603 12.436 83.816C12.8195 84.5686 13.4314 85.1805 14.184 85.564C15.0397 86 16.1598 86 18.4 86H69.6C71.8402 86 72.9603 86 73.816 85.564C74.5686 85.1805 75.1805 84.5686 75.564 83.816C76 82.9603 76 81.8402 76 79.6V23.5L54.9326 2.9114L54.9326 2.91138C54.5882 2.57487 54.4161 2.40662 54.2163 2.28637C54.0391 2.17974 53.8464 2.10124 53.6452 2.05366C53.4182 2 53.1775 2 52.696 2Z" fill="white"/>
<path d="M52.696 2H18.4C16.1598 2 15.0397 2 14.184 2.43597C13.4314 2.81947 12.8195 3.43139 12.436 4.18404C12 5.03969 12 6.15979 12 8.4V79.6C12 81.8402 12 82.9603 12.436 83.816C12.8195 84.5686 13.4314 85.1805 14.184 85.564C15.0397 86 16.1598 86 18.4 86H69.6C71.8402 86 72.9603 86 73.816 85.564C74.5686 85.1805 75.1805 84.5686 75.564 83.816C76 82.9603 76 81.8402 76 79.6V23.5L54.9326 2.9114L54.9326 2.91138C54.5882 2.57487 54.4161 2.40662 54.2163 2.28637C54.0391 2.17974 53.8464 2.10124 53.6452 2.05366C53.4182 2 53.1775 2 52.696 2Z" fill="white"/>
<path d="M18.4004 2.16699H52.6963C53.0629 2.16699 53.2772 2.16692 53.4473 2.1875L53.6064 2.21582C53.7447 2.24851 53.8791 2.29689 54.0059 2.36035L54.1299 2.42871C54.308 2.5359 54.4645 2.68623 54.8096 3.02344V3.02441L54.8164 3.03027L75.833 23.5693V79.5996C75.833 80.7225 75.8331 81.5552 75.7793 82.2139C75.7323 82.7885 75.6451 83.2198 75.4873 83.5869L75.415 83.7402C75.0934 84.3714 74.6045 84.8993 74.0039 85.2676L73.7402 85.415C73.3399 85.619 72.8704 85.7256 72.2139 85.7793C71.5552 85.8331 70.7225 85.833 69.5996 85.833H18.4004C17.2775 85.833 16.4448 85.8331 15.7861 85.7793C15.2115 85.7323 14.7802 85.6451 14.4131 85.4873L14.2598 85.415C13.6286 85.0934 13.1007 84.6045 12.7324 84.0039L12.585 83.7402C12.381 83.3399 12.2744 82.8704 12.2207 82.2139C12.1669 81.5552 12.167 80.7225 12.167 79.5996V8.40039C12.167 7.27754 12.1669 6.44478 12.2207 5.78613C12.2677 5.21149 12.3549 4.7802 12.5127 4.41309L12.585 4.25977C12.9066 3.62861 13.3955 3.10071 13.9961 2.73242L14.2598 2.58496C14.6601 2.38097 15.1296 2.27436 15.7861 2.2207C16.4448 2.16689 17.2775 2.16699 18.4004 2.16699Z" stroke="#545456" stroke-opacity="0.34" stroke-width="0.333333"/>
<path d="M55.5 3.5V14.1C55.5 17.0403 55.5 18.5104 56.0722 19.6335C56.5756 20.6213 57.3787 21.4245 58.3666 21.9278C59.4896 22.5 60.9597 22.5 63.9 22.5L75 22.5L55.5 3.5Z" fill="white"/>
<path d="M55.5 3.5V14.1C55.5 17.0403 55.5 18.5104 56.0722 19.6335C56.5756 20.6213 57.3787 21.4245 58.3666 21.9278C59.4896 22.5 60.9597 22.5 63.9 22.5L75 22.5L55.5 3.5Z" fill="#787880" fill-opacity="0.04"/>
<path d="M74.5898 22.333H63.9004L61.9551 22.3242C61.3893 22.3153 60.8991 22.2981 60.4658 22.2627C59.709 22.2009 59.1365 22.085 58.6475 21.875L58.4424 21.7793C57.5458 21.3224 56.8059 20.6106 56.3154 19.7354L56.2207 19.5576C55.9486 19.0235 55.808 18.3992 55.7373 17.5342C55.6665 16.6672 55.667 15.5722 55.667 14.0996V3.89453L74.5898 22.333Z" stroke="#545456" stroke-opacity="0.34" stroke-width="0.333333"/>
<path d="M25.9638 56.7852V37.7812H28.3427V40.1875H28.3973C28.6981 39.6315 29.0673 39.1576 29.5048 38.7656C29.9514 38.3646 30.4618 38.0547 31.036 37.8359C31.6102 37.6172 32.2346 37.5078 32.9091 37.5078C34.1213 37.5078 35.1786 37.8132 36.0809 38.4238C36.9924 39.0254 37.6988 39.8822 38.2001 40.9941C38.7014 42.097 38.952 43.3958 38.952 44.8906V44.9043C38.952 46.3991 38.6968 47.6979 38.1864 48.8008C37.6851 49.9036 36.9833 50.7604 36.0809 51.3711C35.1877 51.9727 34.1441 52.2734 32.9501 52.2734C32.2847 52.2734 31.6604 52.1686 31.077 51.959C30.4937 51.7402 29.9742 51.4349 29.5184 51.043C29.0718 50.6419 28.6981 50.168 28.3973 49.6211H28.3427V56.7852H25.9638ZM32.4442 50.168C33.2828 50.168 34.0074 49.9538 34.618 49.5254C35.2287 49.097 35.6981 48.4909 36.0263 47.707C36.3544 46.9141 36.5184 45.9798 36.5184 44.9043V44.8906C36.5184 43.7969 36.3544 42.8581 36.0263 42.0742C35.6981 41.2812 35.2287 40.6751 34.618 40.2559C34.0074 39.8275 33.2828 39.6133 32.4442 39.6133C31.6421 39.6133 30.9312 39.832 30.3114 40.2695C29.6916 40.707 29.204 41.3223 28.8485 42.1152C28.5022 42.8991 28.329 43.8242 28.329 44.8906V44.9043C28.329 45.9616 28.5067 46.8867 28.8622 47.6797C29.2177 48.4635 29.7007 49.0742 30.3114 49.5117C30.9312 49.9492 31.6421 50.168 32.4442 50.168ZM47.084 52.2734C45.8717 52.2734 44.8099 51.9727 43.8984 51.3711C42.9961 50.7604 42.2943 49.9036 41.793 48.8008C41.2917 47.6888 41.041 46.3854 41.041 44.8906V44.877C41.041 43.3822 41.2917 42.0833 41.793 40.9805C42.3034 39.8776 43.0098 39.0254 43.9121 38.4238C44.8145 37.8132 45.8581 37.5078 47.043 37.5078C47.7174 37.5078 48.3418 37.6172 48.916 37.8359C49.4993 38.0456 50.0189 38.3509 50.4746 38.752C50.9303 39.1439 51.304 39.6133 51.5957 40.1602H51.6504V32.2715H54.0293V52H51.6504V49.5938H51.5957C51.304 50.1497 50.9349 50.6283 50.4883 51.0293C50.0417 51.4212 49.5312 51.7266 48.957 51.9453C48.3919 52.1641 47.7676 52.2734 47.084 52.2734ZM47.5488 50.168C48.3509 50.168 49.0618 49.9492 49.6816 49.5117C50.3014 49.0742 50.7845 48.459 51.1309 47.666C51.4863 46.873 51.6641 45.9479 51.6641 44.8906V44.877C51.6641 43.8197 51.4863 42.8991 51.1309 42.1152C50.7754 41.3223 50.2878 40.707 49.668 40.2695C49.0573 39.832 48.3509 39.6133 47.5488 39.6133C46.7103 39.6133 45.9857 39.8275 45.375 40.2559C44.7643 40.6842 44.2949 41.2904 43.9668 42.0742C43.6387 42.8581 43.4746 43.7923 43.4746 44.877V44.8906C43.4746 45.9753 43.6387 46.9141 43.9668 47.707C44.2949 48.5 44.7643 49.1107 45.375 49.5391C45.9857 49.9583 46.7103 50.168 47.5488 50.168ZM58.3878 52V39.75H56.4054V37.7812H58.3878V36.0312C58.3878 35.1198 58.5291 34.3678 58.8116 33.7754C59.1033 33.1738 59.5363 32.7272 60.1105 32.4355C60.6847 32.1439 61.4093 31.998 62.2843 31.998C62.5486 31.998 62.8129 32.0072 63.0773 32.0254C63.3416 32.0436 63.5603 32.0664 63.7335 32.0938V34.0215C63.5877 34.0033 63.4236 33.9896 63.2413 33.9805C63.0682 33.9714 62.8904 33.9668 62.7081 33.9668C62.0519 33.9668 61.5597 34.14 61.2316 34.4863C60.9034 34.8236 60.7394 35.3431 60.7394 36.0449V37.7812H63.6652V39.75H60.7667V52H58.3878Z" fill="#5E5CE7"/>
</svg>
