<svg width="900" height="900" viewBox="0 0 900 900" fill="none" xmlns="http://www.w3.org/2000/svg">
<path d="M900 450C900 698.528 698.528 900 450 900C201.472 900 -0.00012207 698.528 -0.00012207 450C-0.00012207 201.472 201.472 0 450 0C698.528 0 900 201.472 900 450Z" fill="#222339"/>
<g filter="url(#filter0_i_1363_1563)">
<path d="M268.075 689.435C225.759 588.898 325.477 544.243 440.142 441.406C228.026 462.284 162.775 374.647 197.432 288.796C284.206 121.905 677.095 184.814 711.497 379.925C760.968 660.505 325.217 825.195 268.075 689.435Z" fill="url(#paint0_linear_1363_1563)"/>
<path d="M268.075 689.435C225.759 588.898 325.477 544.243 440.142 441.406C228.026 462.284 162.775 374.647 197.432 288.796C284.206 121.905 677.095 184.814 711.497 379.925C760.968 660.505 325.217 825.195 268.075 689.435Z" stroke="#979797"/>
</g>
<defs>
<filter id="filter0_i_1363_1563" x="188.646" y="192.578" width="526.756" height="549.252" filterUnits="userSpaceOnUse" color-interpolation-filters="sRGB">
<feFlood flood-opacity="0" result="BackgroundImageFix"/>
<feBlend mode="normal" in="SourceGraphic" in2="BackgroundImageFix" result="shape"/>
<feColorMatrix in="SourceAlpha" type="matrix" values="0 0 0 0 0 0 0 0 0 0 0 0 0 0 0 0 0 0 127 0" result="hardAlpha"/>
<feOffset dy="4"/>
<feGaussianBlur stdDeviation="5"/>
<feComposite in2="hardAlpha" operator="arithmetic" k2="-1" k3="1"/>
<feColorMatrix type="matrix" values="0 0 0 0 0 0 0 0 0 0 0 0 0 0 0 0 0 0 0.25 0"/>
<feBlend mode="normal" in2="shape" result="effect1_innerShadow_1363_1563"/>
</filter>
<linearGradient id="paint0_linear_1363_1563" x1="215.855" y1="493.924" x2="716.046" y2="405.726" gradientUnits="userSpaceOnUse">
<stop stop-color="#A24C52"/>
<stop offset="0.326923" stop-color="#ED857C"/>
<stop offset="0.634615" stop-color="#EE9A94"/>
<stop offset="1" stop-color="#F5E2D6"/>
</linearGradient>
</defs>
</svg>
